<?xml version="1.0" standalone="no"?>
<!DOCTYPE svg PUBLIC "-//W3C//DTD SVG 20010904//EN"
 "http://www.w3.org/TR/2001/REC-SVG-20010904/DTD/svg10.dtd">
<svg version="1.0" xmlns="http://www.w3.org/2000/svg"
 width="16.000000pt" height="16.000000pt" viewBox="0 0 500.000000 500.000000"
 preserveAspectRatio="xMidYMid meet">

<g transform="translate(0.000000,500.000000) scale(0.100000,-0.100000)"
fill="#000000" stroke="none">
<path d="M2231 3169 c-415 -44 -848 -242 -1243 -569 -88 -73 -98 -84 -85 -97
13 -14 23 -9 83 42 504 428 1069 634 1609 586 474 -43 944 -236 1418 -584 61
-44 70 -48 83 -35 14 13 5 23 -83 86 -608 436 -1213 630 -1782 571z"/>
<path d="M1340 2355 c-98 -31 -168 -126 -178 -240 -3 -45 0 -70 12 -93 57
-111 279 -83 359 45 50 79 65 190 32 239 -36 56 -134 77 -225 49z m94 -100
c-2 -59 -45 -199 -70 -226 -21 -23 -52 -25 -61 -2 -14 37 42 228 79 265 34 34
53 20 52 -37z"/>
<path d="M2253 2359 c-44 -13 -72 -53 -143 -203 -50 -105 -67 -131 -96 -148
-19 -11 -33 -26 -31 -32 2 -6 34 -12 76 -14 l73 -3 -6 34 c-4 20 -1 46 5 61
11 23 18 26 60 26 l48 0 -11 -32 c-6 -18 -20 -40 -31 -49 -35 -29 -12 -39 90
-39 l95 0 -5 28 c-4 16 8 77 30 155 40 141 39 165 -7 198 -30 23 -103 32 -147
18z m37 -92 c0 -6 -7 -37 -16 -69 -17 -58 -17 -58 -55 -58 -22 0 -39 5 -39 10
0 19 59 128 72 133 18 6 38 -3 38 -16z"/>
<path d="M3546 2360 c-50 -15 -77 -51 -147 -195 -54 -111 -75 -144 -99 -158
-47 -26 -33 -42 40 -45 68 -3 91 7 71 32 -9 11 -9 22 3 50 14 34 18 36 62 36
45 0 46 0 39 -27 -3 -16 -15 -37 -26 -49 -37 -39 -26 -45 79 -42 l97 3 -3 35
c-1 19 11 82 28 140 34 118 37 156 15 187 -25 36 -98 51 -159 33z m15 -153
l-18 -62 -41 -3 c-23 -2 -42 -1 -42 2 0 19 67 136 79 139 35 8 40 -11 22 -76z"/>
<path d="M765 2350 c-3 -5 -3 -20 0 -33 8 -30 -60 -272 -86 -309 -10 -15 -19
-32 -19 -38 0 -17 247 -13 308 5 102 31 164 121 166 242 1 55 -2 65 -27 91
-17 17 -48 35 -72 41 -54 14 -262 15 -270 1z m213 -63 c18 -14 15 -57 -13
-144 -23 -73 -53 -123 -75 -123 -4 0 -15 -3 -24 -6 -11 -4 -16 -1 -16 10 0 16
68 265 76 278 5 8 32 0 52 -15z"/>
<path d="M1667 2353 c-4 -4 -5 -21 -1 -39 8 -41 -59 -280 -87 -310 -33 -35
-24 -44 42 -44 l61 0 -6 35 c-6 30 9 104 40 195 3 8 27 -32 55 -90 28 -58 57
-113 66 -122 20 -22 66 -23 87 -3 14 15 20 31 71 215 15 52 35 107 46 122 30
43 25 49 -38 46 l-58 -3 3 -35 c3 -36 -26 -160 -37 -160 -4 0 -27 41 -51 91
-25 50 -53 95 -62 100 -19 10 -121 12 -131 2z"/>
<path d="M2525 2350 c-3 -6 -4 -19 0 -29 9 -31 -73 -303 -97 -322 -37 -29 -13
-39 92 -39 103 0 124 8 96 38 -12 14 -13 25 -5 58 l11 41 69 6 c85 7 136 31
166 76 48 72 19 159 -58 175 -52 10 -267 7 -274 -4z m200 -54 c14 -10 17 -21
12 -51 -9 -57 -32 -85 -68 -85 -23 0 -30 4 -26 14 3 8 11 34 17 58 14 50 28
78 38 78 5 0 16 -6 27 -14z"/>
<path d="M2925 2350 c-3 -5 -2 -18 4 -27 13 -25 -68 -308 -94 -327 -35 -25 -7
-36 95 -36 104 0 124 8 95 40 -16 17 -16 22 0 75 15 52 18 56 43 53 27 -3 27
-4 24 -68 -3 -56 0 -68 17 -84 26 -24 101 -25 136 -2 28 19 34 56 9 56 -14 0
-15 7 -10 44 6 37 4 48 -13 65 -20 20 -20 20 14 39 21 13 37 33 45 56 10 31 9
41 -7 69 -12 19 -33 37 -53 44 -43 14 -296 17 -305 3z m199 -56 c39 -15 5
-104 -40 -104 -27 0 -28 4 -13 66 11 43 21 50 53 38z"/>
<path d="M3817 2353 c-4 -4 -5 -21 -1 -38 7 -39 -61 -282 -87 -311 -32 -35
-24 -45 34 -42 51 3 52 3 49 33 -2 16 7 65 19 109 l23 79 35 -109 c49 -148 52
-148 171 -5 50 61 93 111 95 111 11 0 -49 -167 -65 -182 -11 -11 -18 -23 -15
-29 4 -5 48 -9 100 -9 96 0 112 7 94 41 -5 11 6 66 31 155 22 77 40 140 40
141 0 1 9 11 21 22 12 11 18 24 14 30 -8 13 -130 15 -153 2 -10 -5 -55 -57
-101 -115 -46 -58 -85 -106 -87 -106 -1 0 -17 46 -34 103 -18 56 -37 108 -42
115 -11 13 -129 17 -141 5z"/>
<path d="M4005 1739 c-284 -220 -638 -394 -951 -467 -316 -74 -661 -75 -999
-1 -324 71 -688 229 -1037 450 -95 60 -109 66 -117 51 -8 -14 6 -26 82 -76
426 -274 849 -440 1277 -503 158 -23 456 -22 610 1 412 63 774 223 1157 511
72 55 81 64 70 79 -11 16 -20 11 -92 -45z"/>
</g>
</svg>
